<?xml version="1.0" encoding="UTF-8"?>
<svg id="Layer_2" data-name="Layer 2" xmlns="http://www.w3.org/2000/svg" viewBox="0 0 761.47 761.47">
  <path d="M654.84,117.63l-61.27,64.43-265.92,1.51c-9.59.05-19.02,2.5-27.36,7.23-10.38,5.89-25.07,15.92-40.51,31.92-12.93,13.4-20.63,28.07-25.19,40.21s-6.49,24.19-6.49,36.71v183.18c0,6.27,2.49,12.27,6.92,16.7l60.74,60.74c5.38,5.38,12.67,8.42,20.28,8.47l172.97.99,99.29,98.24s-314.78.53-327.98,0c-20.6.23-47.53-19.01-98.24-68.13-26.49-25.66-40.43-50.45-47.71-68.28-5.19-12.72-7.74-26.36-7.74-40.1v-195.97c0-17.68,2.68-35.27,8.08-52.1,7.76-24.18,22.62-58.69,50.54-94.59,34.83-44.78,90.23-63.49,122.74-70.94,13.5-3.09,27.31-4.58,41.15-4.58h325.7s0,44.36,0,44.36ZM536.01,406.53l.18,163.9,98.59,97.77h17.43v-359.38h-204.92l-89.79,96.65,178.51,1.06Z"/>
</svg>